<?xml version="1.0" standalone="no"?>
<!DOCTYPE svg PUBLIC "-//W3C//DTD SVG 20010904//EN"
 "http://www.w3.org/TR/2001/REC-SVG-20010904/DTD/svg10.dtd">
<svg version="1.0" xmlns="http://www.w3.org/2000/svg"
 width="260.000000pt" height="260.000000pt" viewBox="0 0 260.000000 260.000000"
 preserveAspectRatio="xMidYMid meet">
<metadata>
Created by potrace 1.11, written by Peter Selinger 2001-2013
</metadata>
<g transform="translate(0.000000,260.000000) scale(0.100000,-0.100000)"
fill="#000000" stroke="none">
<path d="M750 2275 l-545 -322 -3 -653 -2 -652 32 20 c18 11 263 156 543 322
281 166 513 305 518 309 4 4 6 298 5 653 l-3 645 -545 -322z"/>
<path d="M1848 1622 l-548 -324 0 -649 0 -649 48 29 c26 16 270 160 542 321
272 160 498 295 503 299 4 4 6 297 5 652 l-3 644 -547 -323z"/>
</g>
</svg>
